<svg id="Layer_1" data-name="Layer 1" xmlns="http://www.w3.org/2000/svg" viewBox="0 0 142 62.48"><path d="M17.67,1.76h1.8l.64.12A9.94,9.94,0,0,1,26.77,6a7.66,7.66,0,0,1,1.49,5.93,6.89,6.89,0,0,1-4.56,5.46c-.36.15-.73.25-1.13.38L36.4,33,50.28,17.75l-.38-.1A7.1,7.1,0,0,1,45,8.06a9.66,9.66,0,0,1,6.81-6c.52-.15,1.06-.22,1.59-.32h1.8c.51.1,1,.18,1.51.32a7.1,7.1,0,0,1,5,9.39,9.35,9.35,0,0,1-4.32,5.12l-.39.22L71.84,27.65,86.68,16.81l-.33-.19A9.63,9.63,0,0,1,83,13.51a7.64,7.64,0,0,1-1.26-6.09A7,7,0,0,1,87,2.08a14.81,14.81,0,0,1,1.47-.32h1.8l.64.12A9.94,9.94,0,0,1,97.55,6,7.66,7.66,0,0,1,99,11.93a6.89,6.89,0,0,1-4.56,5.46c-.36.15-.73.25-1.13.38L107.18,33l13.88-15.25-.38-.1a7.1,7.1,0,0,1-4.93-9.59,9.66,9.66,0,0,1,6.81-6c.52-.15,1.06-.22,1.59-.32H126c.51.1,1,.18,1.5.32a7.1,7.1,0,0,1,5,9.39,9.37,9.37,0,0,1-4.33,5.12l-.37.22.15.12,14.67,10.68a.58.58,0,0,1,.28.55c-.07,2.62-.12,5.25-.18,7.88,0,.08,0,.17,0,.29l-12.87-8.09c3.53,10.37,7,20.66,10.55,31l-2,.33c-2.07.34-4.13.67-6.19,1a.39.39,0,0,1-.51-.27q-3.39-6.81-6.79-13.6c0-.09-.1-.18-.16-.3-.06.14-.11.24-.16.34l-6.87,15.66a.46.46,0,0,1-.38.33c-2,.37-3.91.77-5.86,1.15l-1.93.37c3.39-11.42,6.76-22.78,10.16-34.22L107.19,41.65,94.76,30c3.39,11.45,6.75,22.81,10.13,34.2l-.3,0c-2.46-.49-4.91-1-7.37-1.45a.61.61,0,0,1-.5-.41q-3.41-7.81-6.83-15.61l-.16-.33-.1.2L82.92,60.05c-.29.58-.29.57-.94.45l-5.06-.84-2.78-.46L84.62,28.34l-.06,0-12.72,8L59,28.24c3.53,10.37,7,20.65,10.55,31l-2.38.4c-1.94.32-3.89.63-5.83,1-.25,0-.36,0-.47-.23Q58,54.63,55.18,48.94c-.42-.84-.84-1.69-1.28-2.56l-.14.28L52.2,50.2q-2.67,6.12-5.35,12.23a.42.42,0,0,1-.36.28l-6.18,1.22c-.52.11-1.05.2-1.62.31C42.08,52.82,45.46,41.46,48.85,30L36.41,41.65,24.05,30.08l0,0q5,17,10.1,34.11l-.32,0-7.36-1.46a.54.54,0,0,1-.47-.36q-3-6.85-6-13.71c-.33-.75-.67-1.5-1-2.29-.59,1.18-1.16,2.31-1.72,3.45L12,60.34c-.06.13-.1.29-.32.25-.4-.08-.81-.15-1.22-.21L5,59.48,3.36,59.2,13.84,28.34l-.06,0L1,36.34c0-.19,0-.32,0-.45C1,34.25.94,32.62.91,31c0-.33,0-.65-.06-1V27.76a1.71,1.71,0,0,0,.23-.13l12.85-9.38,2-1.43-.06-.06-.22-.12a9.69,9.69,0,0,1-3.39-3.13A7.64,7.64,0,0,1,11,7.42,7,7,0,0,1,16.2,2.08,14.81,14.81,0,0,1,17.67,1.76Z" transform="translate(-0.85 -1.76)"/></svg>